<?xml version="1.0" standalone="no"?>
<!DOCTYPE svg PUBLIC "-//W3C//DTD SVG 20010904//EN"
 "http://www.w3.org/TR/2001/REC-SVG-20010904/DTD/svg10.dtd">
<svg version="1.0" xmlns="http://www.w3.org/2000/svg"
 width="399.000000pt" height="367.000000pt" viewBox="0 0 399.000000 367.000000"
 preserveAspectRatio="xMidYMid meet">
<metadata>
Created by potrace 1.16, written by Peter Selinger 2001-2019
</metadata>
<g transform="translate(0.000000,367.000000) scale(0.100000,-0.100000)"
fill="#000000" stroke="none">
<path d="M2894 3192 c-117 -42 -213 -132 -254 -239 l-18 -48 -1148 -5 c-632
-3 -1157 -9 -1167 -14 -20 -9 -47 -56 -47 -81 0 -32 30 -73 61 -84 23 -8 362
-11 1166 -11 1071 0 1134 -1 1139 -17 37 -112 116 -203 221 -255 64 -31 73
-33 173 -32 92 0 112 3 163 26 76 36 159 116 197 191 16 33 30 66 30 74 0 10
24 13 109 13 125 0 166 11 186 51 19 35 19 53 0 88 -20 40 -61 51 -186 51 -85
0 -109 3 -109 13 0 34 -65 138 -115 186 -78 74 -148 103 -260 108 -70 3 -102
0 -141 -15z m185 -172 c58 -16 109 -59 136 -113 76 -153 -33 -327 -205 -327
-50 0 -133 42 -165 83 -61 81 -66 179 -15 261 54 85 154 123 249 96z"/>
<path d="M920 2159 c-116 -23 -228 -111 -280 -221 -17 -35 -30 -69 -30 -75 0
-10 -36 -13 -146 -13 l-146 0 -29 -29 c-39 -40 -39 -82 0 -122 l29 -29 145 0
145 0 6 -34 c9 -46 74 -145 122 -184 214 -178 529 -102 640 152 l28 66 1129 0
1129 0 29 29 c39 40 39 82 0 122 l-29 29 -1129 0 -1129 0 -28 66 c-55 126
-171 219 -305 244 -62 11 -88 11 -151 -1z m143 -184 c46 -7 110 -62 139 -119
54 -105 -1 -256 -111 -302 -44 -19 -132 -18 -179 2 -152 63 -179 272 -49 377
35 29 116 57 147 51 8 -2 32 -6 53 -9z"/>
<path d="M2173 1106 c-65 -21 -124 -60 -175 -114 -46 -49 -98 -137 -98 -167 0
-13 -85 -15 -774 -15 -540 0 -783 -3 -805 -11 -31 -11 -61 -52 -61 -84 0 -32
30 -73 61 -84 22 -8 265 -11 805 -11 640 0 774 -2 774 -13 0 -8 14 -41 30 -74
37 -75 120 -155 197 -191 52 -24 70 -27 163 -27 99 0 109 2 173 33 105 52 184
143 221 255 5 16 37 17 474 17 318 0 479 4 501 11 31 11 61 52 61 84 0 32 -30
73 -61 84 -22 7 -183 11 -501 11 -437 0 -469 1 -474 18 -36 109 -118 203 -220
253 -59 29 -79 34 -158 36 -57 2 -107 -2 -133 -11z m225 -195 c82 -42 129
-142 111 -237 -13 -70 -54 -124 -119 -157 -47 -24 -63 -28 -113 -24 -80 7
-139 44 -177 110 -72 126 -11 283 128 328 41 13 124 3 170 -20z"/>
</g>
</svg>
