<?xml version="1.0" standalone="no"?>
<!DOCTYPE svg PUBLIC "-//W3C//DTD SVG 20010904//EN"
 "http://www.w3.org/TR/2001/REC-SVG-20010904/DTD/svg10.dtd">
<svg version="1.0" xmlns="http://www.w3.org/2000/svg"
 width="245.000000pt" height="171.000000pt" viewBox="0 0 245.000000 171.000000"
 preserveAspectRatio="xMidYMid meet">
<metadata>
Created by potrace 1.16, written by Peter Selinger 2001-2019
</metadata>
<g transform="translate(0.000000,171.000000) scale(0.100000,-0.100000)"
fill="#000000" stroke="none">
<path d="M232 1238 c-16 -16 -16 -90 0 -106 9 -9 248 -12 1013 -12 958 0 1003
1 1018 18 22 25 21 75 -1 95 -17 16 -102 17 -1018 17 -765 0 -1003 -3 -1012
-12z"/>
<path d="M224 676 c-3 -7 -4 -35 -2 -62 l3 -49 524 -3 c413 -2 526 0 533 10 4
7 8 30 8 50 0 74 46 68 -536 68 -436 0 -526 -2 -530 -14z"/>
</g>
</svg>
