<?xml version="1.0" encoding="iso-8859-1"?>
<!-- Generator: Adobe Illustrator 19.0.0, SVG Export Plug-In . SVG Version: 6.00 Build 0)  -->
<svg version="1.1" id="Capa_1" xmlns="http://www.w3.org/2000/svg" xmlns:xlink="http://www.w3.org/1999/xlink" x="0px" y="0px"
	 viewBox="0 0 511.999 511.999" style="enable-background:new 0 0 511.999 511.999;" xml:space="preserve">
<path style="fill:#A5506E;" d="M267.704,470.616h-23.408l-18.978,18.978c-3.233,3.233-3.233,8.471,0,11.704
	c1.617,1.617,3.734,2.425,5.852,2.425c2.118,0,4.235-0.808,5.852-2.425l10.702-10.702v13.126c0,4.571,3.702,8.277,8.277,8.277
	s8.277-3.706,8.277-8.277v-13.126l10.702,10.702c1.617,1.617,3.734,2.425,5.852,2.425s4.235-0.808,5.852-2.425
	c3.233-3.233,3.233-8.471,0-11.704L267.704,470.616z"/>
<path style="fill:#A0D755;" d="M272.441,138.987c-1.016-73.701-8.725-117.117-13.217-136.413c-0.799-3.432-5.651-3.429-6.45,0.003
	c-4.504,19.347-12.24,62.933-13.224,136.971L256,164.377L272.441,138.987z"/>
<path style="fill:#B4E66E;" d="M259.225,2.573C258.825,0.857,257.411-0.001,256,0v164.377l16.442-25.391
	C271.426,65.285,263.717,21.869,259.225,2.573z"/>
<path style="fill:#87BE4B;" d="M272.553,181.466l-12.386,13.949l-28.443-13.277c-18.009-51.248-55.868-105.331-76.372-132.462
	c-2.299-3.043,1.609-6.944,4.65-4.642C230.323,98.262,266.122,168.089,272.553,181.466z"/>
<path style="fill:#A0D755;" d="M240.51,181.466l12.386,13.949l28.443-13.277c18.009-51.248,55.868-105.331,76.372-132.462
	c2.299-3.043-1.609-6.944-4.65-4.642C282.741,98.262,246.941,168.089,240.51,181.466z"/>
<path style="fill:#D76996;" d="M256,478.893c68.567,0,124.151-51.879,124.151-115.874c0-41.939-27.172-73.735-59.627-99.007
	c-21.33-16.609-37.625-31.869-36.783-49.101c0.444-9.103,4.53-17.427,13.643-17.427l0,0c0,0-0.676-13.649-16.812-17.329
	c-14.743-3.362-24.572,9.053-24.572,9.053s-9.829-12.415-24.572-9.053c-16.136,3.68-16.812,17.329-16.812,17.329l0,0
	c9.113,0,13.199,8.324,13.643,17.427c0.841,17.232-15.454,32.492-36.783,49.101c-32.455,25.272-59.627,57.068-59.627,99.007
	C131.849,427.014,187.433,478.893,256,478.893z"/>
<path style="fill:#B45A82;" d="M347.044,363.249c0-36.933-10.608-71.035-32.272-103.824c-18.405-14.864-31.794-28.883-31.031-44.514
	c0.015-0.301,0.102-0.575,0.127-0.873h-0.038c0.66-8.751,4.738-16.553,13.555-16.553c0,0-0.676-13.649-16.812-17.329
	c-8.6-1.961-15.528,1.446-19.808,4.626c-2.792,2.074-6.735,2.074-9.527,0c-4.28-3.18-11.208-6.587-19.808-4.626
	c-16.136,3.68-16.812,17.329-16.812,17.329c8.817,0,12.895,7.802,13.555,16.553h-0.038c0.025,0.298,0.112,0.572,0.127,0.873
	c0.722,14.803-11.31,28.167-28.212,42.165c-2.759,2.295-5.566,4.596-8.572,6.936c-32.455,25.272-59.627,57.068-59.627,99.007
	c0,63.996,55.584,115.874,124.151,115.874c21.92,0,42.46-5.26,60.307-14.59c0.24-0.126,2.773-1.457,3.733-1.996
	C336.797,437.061,347.044,401.965,347.044,363.249z M292.421,256.448c25.97,34.255,38.07,68.19,38.07,106.801
	c0,27.868-5.718,53.518-15.294,74.086c-2.856,6.134-9.157,10-15.912,9.617c-3.049-0.173-6.067-0.455-9.064-0.803
	c5.227-26.839,7.163-57.532,7.163-79.397c0-40.111-5.318-76.875-16.262-112.399c-2.839-9.19-5.103-17.468-6.732-25.49
	C279.281,238.586,285.792,247.703,292.421,256.448z M219.579,256.448c6.626-8.742,13.135-17.856,18.027-27.574
	c-1.629,8.023-3.892,16.298-6.727,25.481c-10.944,35.491-16.262,72.256-16.262,112.399c0,12.92,0.694,28.965,2.313,45.479
	c-18.558-17.714-31.025-40.951-34.405-66.831C185.768,313.994,197.692,285.318,219.579,256.448z M241.931,430.652
	c-4.435-2.472-7.32-7.061-7.91-12.104c-1.74-14.876-2.851-32.06-2.851-51.795c0-38.466,5.084-73.634,15.535-107.517
	c4.51-14.638,7.8-27.283,9.295-40.183c1.487,12.888,4.785,25.537,9.295,40.179c10.451,33.919,15.535,69.087,15.535,107.521
	c0,31.772-2.803,57.222-6.618,76.49C262.724,440.438,251.872,436.193,241.931,430.652z"/>
<g>
</g>
<g>
</g>
<g>
</g>
<g>
</g>
<g>
</g>
<g>
</g>
<g>
</g>
<g>
</g>
<g>
</g>
<g>
</g>
<g>
</g>
<g>
</g>
<g>
</g>
<g>
</g>
<g>
</g>
</svg>
